<svg width="808" height="128" viewBox="0 0 808 128" fill="none" xmlns="http://www.w3.org/2000/svg">
<path d="M0 47.5L55.5 0L113.87 47.0885L57 92L0 47.5Z" fill="#333333"/>
<path d="M0 47.5L57 92V104L0 59.5V47.5Z" fill="#40C4FF"/>
<path d="M0 71.5L57 116V128L0 84V71.5Z" fill="#9DE1FF"/>
<path d="M0 59.5L57 104V116L0 71.5V59.5Z" fill="#6DD2FF"/>
<path d="M57 92L114 47V59.5L57 104V92Z" fill="#46AC7B"/>
<path d="M57 116L114 72V83.5L57 128V116Z" fill="#69FFB8"/>
<path d="M57 104L114 59.5V72L57 116V104Z" fill="#5AD89C"/>
<path d="M32.0956 49.3329L35.547 46.6364L43.1012 49.9336L45.212 48.2844L37.1889 44.9025C38.5541 42.9176 38.4252 40.505 36.8542 38.4942C34.8221 35.8932 31.6726 35.615 28.8915 37.7878L23.4793 42.0163L34.7578 56.4521L36.5585 55.0453L32.0956 49.3329ZM26.5306 42.2101L29.9019 39.5761C31.7627 38.1223 33.6882 38.2773 35.0404 40.008C36.4238 41.7787 36.155 43.5998 34.3042 45.0458L30.8528 47.7423L26.5306 42.2101ZM51.3463 38.6908C51.8221 39.8979 51.3754 41.3263 50.0549 42.358C48.1841 43.8196 45.9897 43.4236 44.4344 41.4328L44.3562 41.3327L51.8192 35.502L51.3034 34.8417C48.8413 31.6904 45.5161 31.0018 42.705 33.1981C39.8338 35.4413 39.7048 39.0703 42.2294 42.3016C44.7852 45.573 48.2139 46.2291 51.1951 43.8999C53.466 42.1257 54.1794 39.4095 53.057 37.3543L51.3463 38.6908ZM43.8552 34.7322C45.4959 33.4503 47.5555 33.8389 48.9555 35.5483L43.3032 39.9644C42.0611 38.1477 42.2246 36.0062 43.8552 34.7322ZM51.2114 31.4659C52.3838 32.9665 54.0454 33.1344 56.3736 32.0726L58.3369 31.1831C59.754 30.5432 60.5003 30.6529 61.0865 31.4032C61.8212 32.3436 61.4198 33.6238 60.0092 34.7259C58.5986 35.8279 57.3528 35.883 56.2126 34.8566L54.4719 36.2166C56.1961 38.0111 58.6781 38.0535 61.1191 36.1464C63.44 34.3331 64.1503 31.7161 62.7356 29.9053C61.571 28.4147 60.1698 28.1884 57.6703 29.3196L55.707 30.209C54.3277 30.8356 53.4145 30.7596 52.8517 30.0393C52.1405 29.129 52.4884 27.8422 53.7589 26.8495C55.0394 25.8491 56.3634 25.8941 57.3454 26.8829L59.0061 25.5855C57.4979 23.7994 54.93 23.6469 52.649 25.429C50.3981 27.1876 49.8201 29.6852 51.2114 31.4659ZM57.2905 18.0489L59.2523 20.5599L57.7017 21.7714L58.8194 23.202L60.37 21.9905L65.2707 28.263C66.8339 30.2638 68.1838 30.4658 70.0946 28.9729C70.5048 28.6524 70.9615 28.2473 71.1325 28.0331L69.9914 26.5725C69.8869 26.6863 69.5102 27.029 69.3102 27.1853C68.4198 27.8809 67.6835 27.7634 66.941 26.813L62.1107 20.6305L64.1315 19.0517L63.0139 17.6211L60.993 19.1999L59.0312 16.6889L57.2905 18.0489ZM63.4172 73.4005L59.4779 68.3585L59.6942 65.4185L70.39 67.9528L72.6909 66.1551L59.9442 63.161L60.8822 52.1335L58.6113 53.9077L57.7412 65.9294L57.6411 66.0076L52.1387 58.9647L50.3379 60.3716L61.6165 74.8074L63.4172 73.4005ZM65.3372 52.165C65.9475 51.6882 66.0447 50.8228 65.5757 50.2226C65.0989 49.6124 64.2436 49.5073 63.6333 49.9841C63.0331 50.4531 62.918 51.3162 63.3948 51.9265C63.8638 52.5267 64.737 52.6339 65.3372 52.165ZM74.0415 65.0999L75.7822 63.7399L67.6535 53.3357L65.9128 54.6957L74.0415 65.0999ZM68.6029 48.5503L70.5647 51.0613L69.0141 52.2728L70.1318 53.7033L71.6824 52.4919L76.583 58.7644C78.1462 60.7652 79.4962 60.9671 81.407 59.4743C81.8171 59.1538 82.2739 58.7486 82.4449 58.5345L81.3037 57.0739C81.1993 57.1877 80.8226 57.5303 80.6225 57.6867C79.7322 58.3823 78.9959 58.2648 78.2534 57.3144L73.4231 51.1319L75.4439 49.553L74.3262 48.1225L72.3054 49.7013L70.3436 47.1903L68.6029 48.5503Z" fill="white"/>
<path d="M177.822 102L201.504 31.541H185.439L169.326 86.8145H168.984L152.871 31.541H136.367L160.049 102H177.822ZM247.256 102H262.93L238.418 31.541H221.084L196.621 102H211.758L217.129 84.9102H241.885L247.256 102ZM229.336 45.0176H229.678L238.711 73.875H220.303L229.336 45.0176ZM270.156 31.541V102H284.902V79.7832H298.086C312.93 79.7832 323.232 70.1152 323.232 55.6621C323.232 41.1602 313.271 31.541 298.818 31.541H270.156ZM284.902 43.2109H294.912C303.359 43.2109 308.242 47.7031 308.242 55.7109C308.242 63.7676 303.311 68.2598 294.863 68.2598H284.902V43.2109ZM363.76 30.3203C342.861 30.3203 329.775 44.334 329.775 66.7949C329.775 89.207 342.861 103.172 363.76 103.172C384.609 103.172 397.744 89.207 397.744 66.7949C397.744 44.334 384.609 30.3203 363.76 30.3203ZM363.76 42.625C375.283 42.625 382.656 52 382.656 66.7949C382.656 81.541 375.283 90.8672 363.76 90.8672C352.188 90.8672 344.814 81.541 344.814 66.7949C344.814 52 352.236 42.625 363.76 42.625ZM422.012 76.2188H433.828L446.963 102H463.662L448.818 74.0215C456.924 70.8477 461.611 63.0352 461.611 54.002C461.611 40.0859 452.334 31.541 436.123 31.541H407.266V102H422.012V76.2188ZM422.012 43.0645H434.561C441.885 43.0645 446.475 47.459 446.475 54.2949C446.475 61.2773 442.129 65.5254 434.707 65.5254H422.012V43.0645ZM505.898 76.2188H517.715L530.85 102H547.549L532.705 74.0215C540.811 70.8477 545.498 63.0352 545.498 54.002C545.498 40.0859 536.221 31.541 520.01 31.541H491.152V102H505.898V76.2188ZM505.898 43.0645H518.447C525.771 43.0645 530.361 47.459 530.361 54.2949C530.361 61.2773 526.016 65.5254 518.594 65.5254H505.898V43.0645ZM588.174 85.9844C586.855 89.9883 582.852 92.5762 577.627 92.5762C570.352 92.5762 565.615 87.4492 565.615 79.9785V79.0996H601.699V74.7539C601.699 58.8359 592.08 48.5332 576.846 48.5332C561.367 48.5332 551.602 59.373 551.602 76.0723C551.602 92.8203 561.27 103.123 577.383 103.123C590.322 103.123 599.697 96.2383 601.26 85.9844H588.174ZM576.992 59.0801C583.34 59.0801 587.686 63.6699 587.979 70.3594H565.762C566.25 63.8164 570.742 59.0801 576.992 59.0801ZM608.193 65.0371C608.193 72.8984 613.32 77.9766 623.428 80.125L632.363 81.9805C637.49 83.1523 639.297 84.7148 639.297 87.498C639.297 90.916 635.977 93.1133 630.605 93.1133C624.941 93.1133 621.67 90.6719 620.791 86.082H606.875C607.803 96.3848 616.152 103.123 630.605 103.123C644.082 103.123 653.506 96.3359 653.506 86.0332C653.506 78.3672 649.014 74.0703 638.076 71.7754L629.141 69.8711C623.867 68.748 621.914 66.9414 621.914 64.2559C621.914 60.7891 625.186 58.543 630.117 58.543C635.391 58.543 638.564 61.4238 639.004 65.6719H652.139C651.846 55.418 643.545 48.5332 630.117 48.5332C616.787 48.5332 608.193 55.0762 608.193 65.0371ZM664.346 37.5957V49.6562H656.973V60.3984H664.346V87.8887C664.346 98.0938 669.131 102.195 681.436 102.195C684.316 102.195 686.758 101.951 688.223 101.609V91.1113C687.344 91.2578 686.025 91.3555 684.756 91.3555C680.557 91.3555 678.604 89.4512 678.604 85.4473V60.3984H688.271V49.6562H678.604V37.5957H664.346ZM707.07 102V77.3906L714.688 68.9922L741.104 102H752.334L720.791 62.7422L749.746 31.541H738.662L707.559 65.916H707.07V31.541H698.281V102H707.07ZM763.174 42.1855C766.152 42.1855 768.496 39.793 768.496 36.8633C768.496 33.8848 766.152 31.541 763.174 31.541C760.244 31.541 757.852 33.8848 757.852 36.8633C757.852 39.793 760.244 42.1855 763.174 42.1855ZM758.926 102H767.422V51.2188H758.926V102ZM781.631 38.9629V51.2188H774.062V58.2012H781.631V88.8164C781.631 98.582 785.244 102.391 794.57 102.391C796.572 102.391 798.916 102.244 799.941 102V94.8711C799.355 94.9688 797.402 95.1152 796.426 95.1152C792.08 95.1152 790.127 93.0156 790.127 88.377V58.2012H799.99V51.2188H790.127V38.9629H781.631Z" fill="#262626"/>
</svg>
